# xmcd
#
# Track frame offsets:
#	150
#	16555
#	32089
#	51193
#	69049
#	84227
#	100760
#	113300
#	130834
#	148068
#	164328
#	179955
#
# Disc length: 2617 seconds
# Revision: 2
# Processed by: cddbd v1.5.2PL0 Copyright (c) Steve Scherf et al.
# Submitted via: dBpowerAMP V12.0
#
DISCID=900a370c
DTITLE=Phil Vassar - Prayer Of A Common Man
DYEAR=2008
DGENRE=Country
TTITLE0=This Is My Life
TTITLE1=Around Here Somewhere
TTITLE2=My Chevrolet
TTITLE3=Love Is A Beautiful Thing
TTITLE4=Prayer Of A Common Man
TTITLE5=I Would
TTITLE6=Why Don't Ya
TTITLE7=It's Only Love
TTITLE8=Let Me Love You Tonight
TTITLE9=Baby Rocks
TTITLE10=The World Is A Mess
TTITLE11=Crazy Life
EXTD=
EXTT0=
EXTT1=
EXTT2=
EXTT3=
EXTT4=
EXTT5=
EXTT6=
EXTT7=
EXTT8=
EXTT9=
EXTT10=
EXTT11=
PLAYORDER=
